<svg xmlns="http://www.w3.org/2000/svg" width="16" height="17">
  <g fill="#4D4D4D" fill-rule="evenodd">
    <path d="M9.714 9H2.286C2.128 9 2 9.112 2 9.25s.128.25.286.25h7.428c.158 0 .286-.112.286-.25S9.872 9 9.714 9"/>
    <path d="M12.24 14.51H3.745c-.92 0-1.72-.63-1.95-1.532l-.996-3.93c-.02-.08-.004-.17.04-.228.058-.074.138-.09.195-.09h13.92c.082 0 .158.034.2.09.046.06.062.15.042.228l-1.004 3.93c-.228.902-1.03 1.53-1.95 1.53zm.486 1.687h-.063l-.922-.885h.5c.122 0 .24-.008.357-.023l.13.907zm-9.396 0h-.063l.128-.907c.115.015.23.022.35.022h.507l-.922.885zm8.175-12.875H9.207c.16-.478.592-.814 1.096-.836.016.002.03.004.047.004h.002c.017 0 .033-.002.05-.004.507.02.943.356 1.103.836zm4.273 5.007c-.194-.256-.495-.403-.826-.403h-.91V2.092 2.09C14.04.948 13.123.02 12 .02c-.997 0-1.832.732-2.008 1.696-.808.15-1.458.796-1.608 1.644-.018.106-.01.215.023.316.025.08.064.152.118.217.12.147.297.232.483.232h2.688c.188 0 .372-.087.49-.232.122-.147.175-.346.142-.533-.145-.82-.758-1.45-1.53-1.627.156-.526.636-.91 1.202-.91.688 0 1.25.57 1.253 1.27v5.834H1.033c-.326 0-.624.147-.818.402-.195.255-.263.6-.18.92l.995 3.93c.22.868.824 1.556 1.598 1.897L2.46 16.26c-.026.183.028.364.15.51.126.146.3.23.478.23h.308c.16 0 .315-.065.437-.182l1.57-1.506h5.187l1.57 1.506c.123.118.278.182.437.182h.308c.18 0 .362-.087.485-.23.12-.14.17-.322.143-.51l-.168-1.186c.77-.342 1.37-1.028 1.59-1.894l1.004-3.93c.08-.32.013-.665-.182-.92z"/>
    <path d="M9.25 5c.138 0 .25-.088.25-.196v-.608C9.5 4.088 9.388 4 9.25 4S9 4.088 9 4.196v.608c0 .108.112.196.25.196M9 6.803c0 .11.112.197.25.197s.25-.088.25-.197v-.606c0-.11-.112-.197-.25-.197S9 6.088 9 6.197v.606zM10.25 5c.138 0 .25-.088.25-.196v-.608c0-.108-.112-.196-.25-.196s-.25.088-.25.196v.608c0 .108.112.196.25.196M10 6.803c0 .11.112.197.25.197s.25-.088.25-.197v-.606c0-.11-.112-.197-.25-.197s-.25.088-.25.197v.606z"/>
    <path d="M10.25 5c.138 0 .25-.088.25-.196v-.608c0-.108-.112-.196-.25-.196s-.25.088-.25.196v.608c0 .108.112.196.25.196M10 6.803c0 .11.112.197.25.197s.25-.088.25-.197v-.606c0-.11-.112-.197-.25-.197s-.25.088-.25.197v.606zM11.25 5c.138 0 .25-.088.25-.196v-.608c0-.108-.112-.196-.25-.196s-.25.088-.25.196v.608c0 .108.112.196.25.196M11 6.803c0 .11.112.197.25.197s.25-.088.25-.197v-.606c0-.11-.112-.197-.25-.197s-.25.088-.25.197v.606zM9 7.76c0 .132.112.24.25.24s.25-.108.25-.24v-.52c0-.132-.112-.24-.25-.24S9 7.108 9 7.24v.52zM10 7.76c0 .132.112.24.25.24s.25-.108.25-.24v-.52c0-.132-.112-.24-.25-.24s-.25.108-.25.24v.52z"/>
    <path d="M10 7.76c0 .132.112.24.25.24s.25-.108.25-.24v-.52c0-.132-.112-.24-.25-.24s-.25.108-.25.24v.52zM11 7.76c0 .132.112.24.25.24s.25-.108.25-.24v-.52c0-.132-.112-.24-.25-.24s-.25.108-.25.24v.52z"/>
  </g>
</svg>
